<svg xmlns="http://www.w3.org/2000/svg" width="80" height="80" fill="none"><path fill="#EAECF1" d="M72.969 20.625H80V4.9a2.342 2.342 0 0 0-4.001-1.658L3.242 75.998A2.345 2.345 0 0 0 4.9 80h15.725v-6.25a2.345 2.345 0 0 1 4.688 0V80h6.25v-6.25a2.345 2.345 0 0 1 4.687 0V80h6.25v-6.25a2.345 2.345 0 0 1 4.688 0V80h6.25v-6.25a2.345 2.345 0 0 1 4.687 0V80h6.25v-6.25a2.345 2.345 0 0 1 4.688 0V80h8.593A2.345 2.345 0 0 0 80 77.656v-8.594h-6.25a2.345 2.345 0 0 1 0-4.687H80v-6.25h-6.25a2.345 2.345 0 0 1 0-4.688H80v-6.25h-6.25a2.345 2.345 0 0 1 0-4.687H80v-6.25h-6.25a2.345 2.345 0 0 1 0-4.688H80v-6.25h-7.03a2.345 2.345 0 0 1 0-4.687Zm-7.031 42.969a2.345 2.345 0 0 1-2.344 2.343H38.85a2.345 2.345 0 0 1-1.658-4.002l24.744-24.743a2.345 2.345 0 0 1 4.002 1.658v24.744ZM7.233 45.378l9.944 9.944-6.547 6.545a2.344 2.344 0 0 1-3.314 0l-6.63-6.63a2.344 2.344 0 0 1 0-3.314l6.547-6.545Z"/><path fill="#EAECF1" d="M54.46 17.394c.218 0 .44-.006.663-.019L20.491 52.008l-9.944-9.944L44.723 7.888c.052 2.654.999 5.004 2.749 6.756 1.803 1.801 4.237 2.75 6.987 2.75Z" opacity=".2"/><path fill="#EAECF1" d="m62.328 3.348-4.006 8.444c-2.864 1.306-5.835 1.238-7.536-.464-1.542-1.542-1.742-4.128-.792-6.733l9.21-4.369a2.345 2.345 0 0 1 3.124 3.122Z"/></svg>