<svg xmlns="http://www.w3.org/2000/svg" width="80" height="80" fill="none"><g fill="#fff" clip-path="url(#a)"><path d="M75.223 52.014c-4.115-4.118-9.825-5.863-17.158-3.897L31.915 21.94l.346-1.306c1.506-5.651-.122-11.726-4.246-15.85C23.815.581 17.845-.961 12.2.59a2.343 2.343 0 0 0-1.035 3.917l6.297 6.297a4.683 4.683 0 0 1 .004 6.623c-1.804 1.81-4.836 1.806-6.633.005l-6.297-6.298a2.343 2.343 0 0 0-3.917 1.04 16.21 16.21 0 0 0 4.195 15.811c4.113 4.117 9.816 5.867 17.154 3.898L48.12 58.059c-1.952 7.331-.269 12.986 3.902 17.157 4.205 4.207 10.177 5.738 15.811 4.192a2.343 2.343 0 0 0 1.035-3.917l-6.295-6.295a4.683 4.683 0 0 1-.005-6.624c1.827-1.817 4.852-1.788 6.633-.002l6.298 6.296a2.343 2.343 0 0 0 3.917-1.04 16.215 16.215 0 0 0-4.193-15.812Z"/><path d="M25.086 41.654 2.744 63.999c-3.657 3.657-3.657 9.602 0 13.259 3.656 3.656 9.602 3.656 13.258 0l22.342-22.345-13.258-13.26Zm-11.285 28.33a2.343 2.343 0 1 1-3.315-3.314l14.216-14.218a2.343 2.343 0 1 1 3.314 3.314L13.801 69.984ZM79.312 4.727l-4.04-4.04a2.344 2.344 0 0 0-2.864-.353L59.98 7.79a2.344 2.344 0 0 0-.451 3.667l.989.99L44.739 28.16l6.63 6.63 15.778-15.713 1.394 1.394a2.344 2.344 0 0 0 3.667-.452L79.665 7.59a2.344 2.344 0 0 0-.353-2.863Z" opacity=".2"/></g><defs><clipPath id="a"><path fill="#fff" d="M0 0h80v80H0z"/></clipPath></defs></svg>