<svg xmlns="http://www.w3.org/2000/svg" width="70" height="80" fill="none"><path fill="#EAECF1" d="M0 37.627v2.346c0 1.046.69 1.967 1.693 2.256.68.194 16.837 4.78 33.307 4.78 16.47 0 32.628-4.586 33.307-4.78A2.346 2.346 0 0 0 70 39.973v-2.346a2.338 2.338 0 0 0-2.333-2.345H2.333A2.338 2.338 0 0 0 0 37.627ZM63 56.39a2.338 2.338 0 0 0 2.333-2.345v-6.218A155.68 155.68 0 0 1 51.22 50.48c-.587 8.518-7.598 15.29-16.22 15.29s-15.633-6.772-16.22-15.29a155.673 155.673 0 0 1-14.114-2.652v6.218A2.338 2.338 0 0 0 7 56.39h3.309a25.418 25.418 0 0 0 2.296 5.524l-2.353 2.366a2.353 2.353 0 0 0 0 3.317l6.598 6.633a2.324 2.324 0 0 0 3.3 0l2.354-2.366A25.155 25.155 0 0 0 28 74.173v3.482A2.338 2.338 0 0 0 30.333 80h9.334A2.338 2.338 0 0 0 42 77.655v-3.482a25.145 25.145 0 0 0 5.496-2.31l2.354 2.367a2.324 2.324 0 0 0 3.3 0l6.598-6.633c.912-.916.912-2.4 0-3.317l-2.353-2.366a25.424 25.424 0 0 0 2.296-5.524H63Z"/><path fill="#EAECF1" d="M31.293 25.692a2.326 2.326 0 0 1-3.086-1.173L20.923 8.13C12.596 12.534 6.615 20.892 5.117 30.591h59.766c-1.498-9.699-7.478-18.057-15.806-22.462l-7.284 16.39a2.326 2.326 0 0 1-3.086 1.173 2.348 2.348 0 0 1-1.166-3.101l8.063-18.129c.58-1.292-.088-2.868-1.449-3.238a34.855 34.855 0 0 0-18.31 0c-1.362.37-2.029 1.947-1.45 3.239L32.46 22.59a2.345 2.345 0 0 1-1.166 3.101Z" opacity=".2"/></svg>