<svg xmlns="http://www.w3.org/2000/svg" width="80" height="80" fill="none"><path fill="#EAECF1" d="M55.904 61.295A26.019 26.019 0 0 1 40 66.703a26.018 26.018 0 0 1-15.904-5.407V80h31.808V61.295Zm5.366-3.11h-.68V80H80v-3.086c0-10.327-8.402-18.729-18.73-18.729Zm-41.861 0h-.68C8.402 58.185 0 66.587 0 76.915V80h19.409V58.185ZM49.377 4.973v16.963h11.96A21.237 21.237 0 0 0 57.19 11.42a21.706 21.706 0 0 0-7.813-6.447ZM22.81 11.42a21.236 21.236 0 0 0-4.147 10.516h11.96V4.973a21.703 21.703 0 0 0-7.813 6.447Z"/><path fill="#EAECF1" d="M40 62.015c11.836 0 21.466-9.63 21.466-21.466v-3.376H18.534v3.376c0 11.836 9.63 21.466 21.466 21.466ZM44.69 0h-9.38v21.936h9.38V0Z" opacity=".2"/><path fill="#EAECF1" d="M66.741 26.623H13.26v5.863h53.482v-5.863Z"/></svg>